<mxfile host="drawio-plugin" modified="2024-02-02T09:54:16.985Z" agent="5.0 (Windows NT 6.2; Win64; x64) AppleWebKit/537.36 (KHTML, like Gecko) Chrome/104.0.5112.102 Safari/537.36" etag="ZFuH0_yjvxT-LbenO9Om" version="20.5.3" type="embed"><diagram name="Page-1" id="Sxr9DzLDa_L8-qbNaMPQ"><mxGraphModel dx="1380" dy="771" grid="0" gridSize="10" guides="1" tooltips="1" connect="1" arrows="1" fold="1" page="1" pageScale="1" pageWidth="827" pageHeight="1169" math="0" shadow="0"><root><mxCell id="0"/><mxCell id="1" parent="0"/><mxCell id="Dd9SWTC_9ZYRVmWpmc9n-10" value="&lt;font style=&quot;font-size: 19px;&quot;&gt;&lt;b&gt;Company System&lt;/b&gt;&lt;br&gt;&lt;/font&gt;" style="rounded=0;whiteSpace=wrap;html=1;" parent="1" vertex="1"><mxGeometry x="280" y="380" width="280" height="80" as="geometry"/></mxCell><mxCell id="Dd9SWTC_9ZYRVmWpmc9n-13" value="" style="endArrow=classic;html=1;rounded=0;exitX=1;exitY=0.5;exitDx=0;exitDy=0;entryX=0;entryY=0.5;entryDx=0;entryDy=0;strokeColor=none;" parent="1" source="Dd9SWTC_9ZYRVmWpmc9n-10" edge="1"><mxGeometry width="50" height="50" relative="1" as="geometry"><mxPoint x="390" y="590" as="sourcePoint"/><mxPoint x="480" y="180" as="targetPoint"/></mxGeometry></mxCell><mxCell id="Dd9SWTC_9ZYRVmWpmc9n-15" value="&lt;font style=&quot;font-size: 19px;&quot;&gt;&lt;b&gt;Push notification vendor&lt;/b&gt;&lt;br&gt;&lt;/font&gt;" style="rounded=0;whiteSpace=wrap;html=1;" parent="1" vertex="1"><mxGeometry x="280" y="610" width="280" height="120" as="geometry"/></mxCell><mxCell id="Dd9SWTC_9ZYRVmWpmc9n-17" value="Sends push request data to vendor" style="text;html=1;strokeColor=none;fillColor=none;align=right;verticalAlign=middle;whiteSpace=wrap;rounded=0;" parent="1" vertex="1"><mxGeometry x="130" y="510" width="210" height="60" as="geometry"/></mxCell><mxCell id="Dd9SWTC_9ZYRVmWpmc9n-40" value="System Context Diagram" style="text;strokeColor=none;fillColor=none;html=1;fontSize=24;fontStyle=1;verticalAlign=middle;align=left;" parent="1" vertex="1"><mxGeometry x="20" y="20" width="740" height="40" as="geometry"/></mxCell><mxCell id="6" value="Mobile app user" style="rounded=1;whiteSpace=wrap;html=1;" parent="1" vertex="1"><mxGeometry x="360" y="160" width="120" height="90" as="geometry"/></mxCell><mxCell id="5" value="" style="ellipse;whiteSpace=wrap;html=1;aspect=fixed;" parent="1" vertex="1"><mxGeometry x="380" y="90" width="80" height="80" as="geometry"/></mxCell><mxCell id="11" value="Vendor sends push notification data to device instance" style="text;html=1;strokeColor=none;fillColor=none;align=left;verticalAlign=middle;whiteSpace=wrap;rounded=0;" parent="1" vertex="1"><mxGeometry x="500" y="490" width="210" height="100" as="geometry"/></mxCell><mxCell id="18" value="" style="endArrow=classic;html=1;rounded=0;exitX=0.25;exitY=1;exitDx=0;exitDy=0;entryX=0.25;entryY=0;entryDx=0;entryDy=0;" parent="1" source="6" target="Dd9SWTC_9ZYRVmWpmc9n-10" edge="1"><mxGeometry width="50" height="50" relative="1" as="geometry"><mxPoint x="520" y="430" as="sourcePoint"/><mxPoint x="570" y="380" as="targetPoint"/></mxGeometry></mxCell><mxCell id="20" value="" style="endArrow=classic;html=1;rounded=0;exitX=0.25;exitY=1;exitDx=0;exitDy=0;entryX=0.25;entryY=0;entryDx=0;entryDy=0;" parent="1" source="Dd9SWTC_9ZYRVmWpmc9n-10" target="Dd9SWTC_9ZYRVmWpmc9n-15" edge="1"><mxGeometry width="50" height="50" relative="1" as="geometry"><mxPoint x="710" y="480" as="sourcePoint"/><mxPoint x="350" y="600" as="targetPoint"/></mxGeometry></mxCell><mxCell id="21" value="" style="endArrow=classic;html=1;rounded=0;exitX=0.75;exitY=0;exitDx=0;exitDy=0;" parent="1" source="Dd9SWTC_9ZYRVmWpmc9n-15" edge="1"><mxGeometry width="50" height="50" relative="1" as="geometry"><mxPoint x="710" y="480" as="sourcePoint"/><mxPoint x="490" y="460" as="targetPoint"/></mxGeometry></mxCell><mxCell id="25" value="User enables push notifications" style="text;html=1;strokeColor=none;fillColor=none;align=right;verticalAlign=middle;whiteSpace=wrap;rounded=0;" parent="1" vertex="1"><mxGeometry x="140" y="270" width="210" height="60" as="geometry"/></mxCell><mxCell id="27" value="User receives push notification" style="text;html=1;strokeColor=none;fillColor=none;align=left;verticalAlign=middle;whiteSpace=wrap;rounded=0;" parent="1" vertex="1"><mxGeometry x="480" y="250" width="210" height="100" as="geometry"/></mxCell><mxCell id="28" value="" style="endArrow=classic;html=1;rounded=0;exitX=0.75;exitY=0;exitDx=0;exitDy=0;entryX=0.75;entryY=1;entryDx=0;entryDy=0;" parent="1" source="Dd9SWTC_9ZYRVmWpmc9n-10" target="6" edge="1"><mxGeometry width="50" height="50" relative="1" as="geometry"><mxPoint x="710" y="480" as="sourcePoint"/><mxPoint x="760" y="430" as="targetPoint"/></mxGeometry></mxCell></root></mxGraphModel></diagram></mxfile>